<svg class="w-22 h-auto" width="87" height="40" viewBox="0 0 87 40" xmlns="http://www.w3.org/2000/svg"><g fill-rule="nonzero" fill="none"><title></title><path d="M20.832 11.48L11.464.109a.297.297 0 00-.525.21l.77 11.013-6.842-5.866a.297.297 0 00-.48.297l2.705 10.878-6.565-3.877a.297.297 0 00-.422.377L11.63 39.117c.118.266.509.22.563-.066l2.504-13.324 6.4-10.843a2.976 2.976 0 00-.265-3.404z" fill="#F60"></path><path d="M11.63 11.333L4.79 5.466a.297.297 0 00-.482.297l2.705 10.878 5.204 3.072-.586-8.38z" fill="#E74030"></path><path d="M11.734 33.385a.296.296 0 01-.565-.032L7.013 16.64.45 12.764a.297.297 0 00-.422.377l11.525 25.976c.118.266.508.22.562-.066l2.505-13.324-.043.072-2.842 7.586z" fill="#FAB418"></path><path d="M11.734 33.385l2.842-7.586-1.245 2.108a.296.296 0 01-.55-.13l-.564-8.064-5.204-3.072 4.156 16.712c.07.283.463.305.565.032" fill="#DE0732"></path><path d="M20.754 11.48L11.385.109a.297.297 0 00-.524.21l.77 11.013 4.752 4.076a2.975 2.975 0 01.849 3.302l-2.597 6.933-.016.084 6.4-10.843a2.976 2.976 0 00-.265-3.404" fill="#F60"></path><path d="M13.602 20.531a2.974 2.974 0 011.409 3.11l-.377 2.002 2.598-6.933c.438-1.17.099-2.49-.849-3.302l-4.752-4.075.586 8.38 1.385.818z" fill="#DE0733"></path><path d="M13.602 20.531l-1.385-.818.563 8.064c.02.29.403.381.551.13l1.245-2.108.058-.156.377-2.001a2.974 2.974 0 00-1.409-3.11" fill="#CC1D46"></path><path d="M40.377 15.614c.39 0 .731.26.836.634l3.717 13.288 4.277-13.172c.145-.447.562-.75 1.032-.75h.838c.47 0 .886.303 1.032.75l4.277 13.172 3.702-13.287a.868.868 0 01.836-.635h1.858l-5.343 17.8h-2.03L50.608 18.98l-4.804 14.436h-2.004l-5.347-17.801h1.925zm-9.336-.002c.596 0 1.13.365 1.348.92l6.607 16.881H37.01a.868.868 0 01-.811-.56l-1.807-4.757h-7.218l-1.768 4.752a.868.868 0 01-.813.565h-1.914l6.576-16.88a1.447 1.447 0 011.348-.921h.438zm-.271 2.825l-2.826 7.527h5.651l-2.825-7.527zm35.414 14.978h2.414V15.614h-2.414v17.8zm18.476-.611L75.357 19.56v13.858h-2.235V15.63h1.41c.47 0 .91.228 1.18.61l8.97 12.67V15.617l2.234-.003v17.805h-1.072c-.471 0-.913-.23-1.184-.615" fill="currentColor"></path></g></svg>