<svg width="27" height="48" viewBox="0 0 27 48" fill="none" xmlns="http://www.w3.org/2000/svg" class="mx-auto mb-0"><path d="M26.1619 13.9884L14.3954 0.125432C14.1476 -0.115663 13.7141 0.00488437 13.7141 0.366526L14.705 13.8075L6.15878 6.69526C5.91106 6.45416 5.47756 6.69526 5.53949 7.0569L8.94559 20.3171L0.709007 15.6158C0.39936 15.4349 0.0277851 15.7363 0.151644 16.0979L14.5812 47.8019C14.705 48.1032 15.2004 48.043 15.2624 47.7416L18.4208 31.4677L26.4716 18.2075C27.2766 16.8815 27.1528 15.1938 26.1619 13.9884Z" fill="#FF6600"></path><path d="M14.6384 13.8096L6.03024 6.69727C5.78253 6.45617 5.34902 6.69727 5.41095 7.05891L8.81706 20.3191L15.3196 24.0561L14.6384 13.8096Z" fill="#E74030"></path><path d="M14.7636 40.7484C14.6397 41.1101 14.1443 41.0498 14.0824 40.6881L8.88033 20.3157L0.581809 15.554C0.272163 15.3732 -0.0994122 15.6746 0.0244463 16.0362L14.454 47.7402C14.5778 48.0415 15.0732 47.9813 15.1352 47.6799L18.2936 31.406L18.2316 31.4663L14.7636 40.7484Z" fill="#FAB418"></path><path d="M14.7618 40.7516L18.3537 31.4695L16.7435 34.0612C16.5577 34.3626 16.0623 34.2421 16.0623 33.8804L15.381 24.0558L8.87848 20.3188L14.0805 40.6913C14.1425 41.053 14.6379 41.1132 14.7618 40.7516Z" fill="#DE0732"></path><path d="M26.0334 13.9903L14.2669 0.127347C14.0811 -0.113747 13.6476 0.0670735 13.6476 0.368442L14.6385 13.8095L20.5837 18.8122C21.7603 19.7765 22.1938 21.4039 21.6365 22.8505L18.3542 31.2888V31.4094L26.405 18.1492C27.2101 16.8834 27.0243 15.1958 26.0334 13.9903Z" fill="#FF6600"></path><path d="M17.0564 25.0786C18.4189 25.8621 19.1001 27.369 18.8524 28.8758L18.3569 31.347L21.6392 22.9087C22.1965 21.4622 21.763 19.895 20.5864 18.8704L14.6412 13.8677L15.3843 24.1142L17.0564 25.0786Z" fill="#DE0733"></path><path d="M17.0508 25.0792L15.3168 24.0546L15.998 33.8792C15.998 34.2408 16.4934 34.3614 16.6792 34.06L18.2274 31.4682L18.2894 31.2874L18.7848 28.8162C19.1564 27.3696 18.4132 25.8628 17.0508 25.0792Z" fill="#CC1D46"></path></svg>